<svg width="189" height="64" viewBox="0 0 189 64" fill="none" xmlns="http://www.w3.org/2000/svg">
<g filter="url(#filter0_d_122_251)">
<path fill-rule="evenodd" clip-rule="evenodd" d="M51.5126 9.2816V7.20316L45.767 9.33873H45.7561V11.4716H45.767L51.5126 13.6072V11.526L48.5664 10.3997L51.5126 9.27888V9.2816Z" fill="#F7DD43"/>
<path fill-rule="evenodd" clip-rule="evenodd" d="M84.7922 13.5037V11.4253L87.7358 10.3072L84.7922 9.18905V7.1106L90.5297 9.24618H90.5433V11.3817H90.5297L84.7922 13.5064V13.5037ZM82.3275 4.16977L78.9541 15H80.9564L84.3298 4.16977H82.3275Z" fill="#F7DD43"/>
<path fill-rule="evenodd" clip-rule="evenodd" d="M59.9543 6.91747C60.5256 7.54317 60.8249 8.3702 60.7895 9.21627V13.8302H58.7872V9.64066C58.8117 9.17274 58.6621 8.7157 58.3683 8.35116C58.0908 8.02742 57.68 7.84787 57.2529 7.86691C55.9987 7.86691 55.3703 8.73746 55.3703 10.4758V13.8302H53.368V6.25639H55.3703V6.93923C56.0069 6.32168 56.8693 5.99251 57.7562 6.03059C58.5832 5.99523 59.383 6.31896 59.9543 6.91747Z" fill="#F7DD43"/>
<path fill-rule="evenodd" clip-rule="evenodd" d="M63.3413 3V13.8302H65.3436V3H63.3413Z" fill="#F7DD43"/>
<path fill-rule="evenodd" clip-rule="evenodd" d="M76.6661 13.8302H74.9958L73.358 9.36862L71.704 13.8302H70.0336L67.2261 6.2428H69.3671L70.945 10.7806L72.5718 6.2428H74.1361L75.7629 10.7942L77.3408 6.2428H79.4818L76.6716 13.8302H76.6661Z" fill="#F7DD43"/>
<path d="M100.08 17.9981C98.1533 17.9981 96.1295 17.6331 94.5433 16.754V1.24411C96.1046 0.389878 98.1284 2.85548e-05 100.08 2.85548e-05C102.031 2.85548e-05 104.007 0.365035 105.566 1.24411V7.19505H101.639V3.14558C101.177 2.95066 100.615 2.87804 100.055 2.87804C99.4948 2.87804 98.9807 2.95066 98.4934 3.14558V14.8525C98.9559 15.0475 99.4929 15.1201 100.055 15.1201C100.617 15.1201 101.152 15.0475 101.639 14.8525V10.805H105.566V16.7559C104.03 17.6101 102.006 17.9752 100.08 18V17.9981Z" fill="#F7DD43"/>
<path d="M112.931 17.9981C110.858 17.9981 108.859 17.5585 107.273 16.6565V1.3167C108.834 0.439536 110.835 0 112.931 0C115.028 0 116.979 0.414693 118.54 1.3167V16.6565C117.004 17.5585 114.98 17.9732 112.931 17.9981ZM114.615 3.19524C114.152 3.00031 113.591 2.90285 112.908 2.90285C112.226 2.90285 111.689 3.00031 111.225 3.19524V14.7799C111.687 14.9997 112.249 15.0971 112.908 15.0971C113.568 15.0971 114.128 14.9997 114.615 14.7799V3.19524Z" fill="#F7DD43"/>
<path d="M125.393 11.4127H124.344V17.7783H120.369V0.219779H125.393C127.784 0.219779 129.588 0.707092 131.002 1.70656V9.92589C129.613 10.9024 127.782 11.4127 125.393 11.4127ZM127.052 3.24303C126.687 2.97548 126.198 2.85318 125.368 2.85318H124.294V8.77927H125.368C126.173 8.77927 126.66 8.65697 127.052 8.41427V3.24303Z" fill="#F7DD43"/>
<path d="M139.317 17.7783V11.4127H136.391V17.7783H132.441V1.29185C133.88 0.437625 135.904 0 137.855 0C139.806 0 141.805 0.439537 143.244 1.29185V17.7783H139.317ZM139.317 3.04809C138.902 2.85316 138.39 2.7557 137.853 2.7557C137.316 2.7557 136.804 2.85316 136.389 3.04809V8.63211H139.315V3.04809H139.317Z" fill="#F7DD43"/>
<path d="M17.7129 47.9248H22.0928C22.0049 49.3604 21.6094 50.6348 20.9062 51.748C20.2129 52.8613 19.2412 53.7305 17.9912 54.3555C16.751 54.9805 15.2568 55.293 13.5088 55.293C12.1416 55.293 10.916 55.0586 9.83203 54.5898C8.74805 54.1113 7.82031 53.4277 7.04883 52.5391C6.28711 51.6504 5.70605 50.5762 5.30566 49.3164C4.90527 48.0566 4.70508 46.6455 4.70508 45.083V43.6035C4.70508 42.041 4.91016 40.6299 5.32031 39.3701C5.74023 38.1006 6.33594 37.0215 7.10742 36.1328C7.88867 35.2441 8.82129 34.5605 9.90527 34.082C10.9893 33.6035 12.2002 33.3643 13.5381 33.3643C15.3154 33.3643 16.8145 33.6865 18.0352 34.3311C19.2656 34.9756 20.2178 35.8643 20.8916 36.9971C21.5752 38.1299 21.9854 39.4189 22.1221 40.8643H17.7275C17.6787 40.0049 17.5078 39.2773 17.2148 38.6816C16.9219 38.0762 16.4775 37.6221 15.8818 37.3193C15.2959 37.0068 14.5146 36.8506 13.5381 36.8506C12.8057 36.8506 12.166 36.9873 11.6191 37.2607C11.0723 37.5342 10.6133 37.9492 10.2422 38.5059C9.87109 39.0625 9.59277 39.7656 9.40723 40.6152C9.23145 41.4551 9.14355 42.4414 9.14355 43.5742V45.083C9.14355 46.1865 9.22656 47.1582 9.39258 47.998C9.55859 48.8281 9.8125 49.5312 10.1543 50.1074C10.5059 50.6738 10.9551 51.1035 11.502 51.3965C12.0586 51.6797 12.7275 51.8213 13.5088 51.8213C14.4268 51.8213 15.1836 51.6748 15.7793 51.3818C16.375 51.0889 16.8291 50.6543 17.1416 50.0781C17.4639 49.502 17.6543 48.7842 17.7129 47.9248ZM33.6504 37.3193L27.8496 55H23.1768L31.1016 33.6719H34.0752L33.6504 37.3193ZM38.4697 55L32.6543 37.3193L32.1855 33.6719H35.1885L43.1572 55H38.4697ZM38.2061 47.0605V50.5029H26.9414V47.0605H38.2061ZM58.8457 51.5723V55H48.1084V51.5723H58.8457ZM49.5293 33.6719V55H45.1348V33.6719H49.5293ZM75.6768 51.5723V55H64.3242V51.5723H75.6768ZM65.7598 33.6719V55H61.3652V33.6719H65.7598ZM74.1973 42.3584V45.6982H64.3242V42.3584H74.1973ZM75.6621 33.6719V37.1143H64.3242V33.6719H75.6621ZM95.5986 33.6719V55H91.2041L82.6348 40.7031V55H78.2402V33.6719H82.6348L91.2188 47.9834V33.6719H95.5986ZM105.97 55H101.326L101.355 51.5723H105.97C107.122 51.5723 108.094 51.3135 108.885 50.7959C109.676 50.2686 110.271 49.502 110.672 48.4961C111.082 47.4902 111.287 46.2744 111.287 44.8486V43.8086C111.287 42.7148 111.17 41.7529 110.936 40.9229C110.711 40.0928 110.374 39.3945 109.925 38.8281C109.476 38.2617 108.924 37.8369 108.27 37.5537C107.615 37.2607 106.863 37.1143 106.014 37.1143H101.238V33.6719H106.014C107.439 33.6719 108.743 33.916 109.925 34.4043C111.116 34.8828 112.146 35.5713 113.016 36.4697C113.885 37.3682 114.554 38.4424 115.022 39.6924C115.501 40.9326 115.74 42.3145 115.74 43.8379V44.8486C115.74 46.3623 115.501 47.7441 115.022 48.9941C114.554 50.2441 113.885 51.3184 113.016 52.2168C112.156 53.1055 111.126 53.7939 109.925 54.2822C108.733 54.7607 107.415 55 105.97 55ZM103.816 33.6719V55H99.4219V33.6719H103.816ZM127.283 37.3193L121.482 55H116.81L124.734 33.6719H127.708L127.283 37.3193ZM132.103 55L126.287 37.3193L125.818 33.6719H128.821L136.79 55H132.103ZM131.839 47.0605V50.5029H120.574V47.0605H131.839ZM124.808 32.4707L127.679 27.959H132.264L128.235 32.4707H124.808ZM138.768 33.6719H146.722C148.353 33.6719 149.754 33.916 150.926 34.4043C152.107 34.8926 153.016 35.6152 153.65 36.5723C154.285 37.5293 154.603 38.7061 154.603 40.1025C154.603 41.2451 154.407 42.2266 154.017 43.0469C153.636 43.8574 153.094 44.5361 152.391 45.083C151.697 45.6201 150.882 46.0498 149.944 46.3721L148.553 47.1045H141.639L141.609 43.6768H146.751C147.522 43.6768 148.162 43.54 148.67 43.2666C149.178 42.9932 149.559 42.6123 149.812 42.124C150.076 41.6357 150.208 41.0693 150.208 40.4248C150.208 39.7412 150.081 39.1504 149.827 38.6523C149.573 38.1543 149.188 37.7734 148.67 37.5098C148.152 37.2461 147.503 37.1143 146.722 37.1143H143.162V55H138.768V33.6719ZM150.691 55L145.828 45.4932L150.472 45.4639L155.394 54.7949V55H150.691ZM162.659 33.6719V55H158.279V33.6719H162.659ZM184.295 43.8379V44.8486C184.295 46.4697 184.075 47.9248 183.636 49.2139C183.196 50.5029 182.576 51.6016 181.775 52.5098C180.975 53.4082 180.018 54.0967 178.904 54.5752C177.801 55.0537 176.575 55.293 175.228 55.293C173.89 55.293 172.664 55.0537 171.551 54.5752C170.447 54.0967 169.49 53.4082 168.68 52.5098C167.869 51.6016 167.239 50.5029 166.79 49.2139C166.351 47.9248 166.131 46.4697 166.131 44.8486V43.8379C166.131 42.207 166.351 40.752 166.79 39.4727C167.229 38.1836 167.85 37.085 168.65 36.1768C169.461 35.2686 170.418 34.5752 171.521 34.0967C172.635 33.6182 173.86 33.3789 175.198 33.3789C176.546 33.3789 177.771 33.6182 178.875 34.0967C179.988 34.5752 180.945 35.2686 181.746 36.1768C182.557 37.085 183.182 38.1836 183.621 39.4727C184.07 40.752 184.295 42.207 184.295 43.8379ZM179.856 44.8486V43.8086C179.856 42.6758 179.754 41.6797 179.549 40.8203C179.344 39.9609 179.041 39.2383 178.641 38.6523C178.24 38.0664 177.752 37.627 177.176 37.334C176.6 37.0312 175.94 36.8799 175.198 36.8799C174.456 36.8799 173.797 37.0312 173.221 37.334C172.654 37.627 172.171 38.0664 171.771 38.6523C171.38 39.2383 171.082 39.9609 170.877 40.8203C170.672 41.6797 170.569 42.6758 170.569 43.8086V44.8486C170.569 45.9717 170.672 46.9678 170.877 47.8369C171.082 48.6963 171.385 49.4238 171.785 50.0195C172.186 50.6055 172.674 51.0498 173.25 51.3525C173.826 51.6553 174.485 51.8066 175.228 51.8066C175.97 51.8066 176.629 51.6553 177.205 51.3525C177.781 51.0498 178.265 50.6055 178.655 50.0195C179.046 49.4238 179.344 48.6963 179.549 47.8369C179.754 46.9678 179.856 45.9717 179.856 44.8486Z" fill="url(#paint0_linear_122_251)"/>
</g>
<defs>
<filter id="filter0_d_122_251" x="-1" y="0" width="191" height="72" filterUnits="userSpaceOnUse" color-interpolation-filters="sRGB">
<feFlood flood-opacity="0" result="BackgroundImageFix"/>
<feColorMatrix in="SourceAlpha" type="matrix" values="0 0 0 0 0 0 0 0 0 0 0 0 0 0 0 0 0 0 127 0" result="hardAlpha"/>
<feOffset dy="4"/>
<feGaussianBlur stdDeviation="2"/>
<feComposite in2="hardAlpha" operator="out"/>
<feColorMatrix type="matrix" values="0 0 0 0 0 0 0 0 0 0 0 0 0 0 0 0 0 0 0.25 0"/>
<feBlend mode="normal" in2="BackgroundImageFix" result="effect1_dropShadow_122_251"/>
<feBlend mode="normal" in="SourceGraphic" in2="effect1_dropShadow_122_251" result="shape"/>
</filter>
<linearGradient id="paint0_linear_122_251" x1="94.5" y1="26" x2="94.5" y2="64" gradientUnits="userSpaceOnUse">
<stop stop-color="white"/>
<stop offset="1" stop-color="#D9D9D9" stop-opacity="0.8"/>
</linearGradient>
</defs>
</svg>
